<?xml version="1.0" standalone="no"?>
<!DOCTYPE svg PUBLIC "-//W3C//DTD SVG 20010904//EN"
 "http://www.w3.org/TR/2001/REC-SVG-20010904/DTD/svg10.dtd">
<svg version="1.0" xmlns="http://www.w3.org/2000/svg"
 width="512.000000pt" height="512.000000pt" viewBox="0 0 512.000000 512.000000"
 preserveAspectRatio="xMidYMid meet">
<metadata>
Created by potrace 1.14, written by Peter Selinger 2001-2017
</metadata>
<g transform="translate(0.000000,512.000000) scale(0.100000,-0.100000)"
fill="#000000" stroke="none">
<path d="M32 4793 c-4 -10 -7 -90 -6 -178 1 -188 18 -268 86 -405 61 -122 154
-212 323 -312 155 -91 476 -251 779 -386 l219 -97 15 -43 c8 -24 12 -46 8 -49
-11 -11 -480 184 -701 292 -169 83 -285 148 -427 241 l-98 63 -7 -27 c-15 -54
-8 -293 11 -367 64 -247 210 -426 444 -544 63 -32 762 -304 767 -299 2 2 23
44 48 93 86 172 222 327 358 407 35 21 67 39 72 41 5 1 -23 112 -62 247 -101
342 -172 471 -332 596 -106 83 -141 101 -809 419 -355 169 -653 311 -663 317
-13 7 -19 4 -25 -9z"/>
<path d="M4416 4419 c-368 -176 -701 -341 -740 -367 -134 -89 -254 -228 -315
-367 -13 -27 -67 -203 -122 -389 -54 -187 -101 -341 -103 -343 -2 -2 -19 5
-37 15 -101 58 -283 92 -529 99 -396 12 -573 -41 -755 -223 -206 -207 -330
-538 -365 -970 -26 -324 48 -652 205 -912 149 -244 317 -375 545 -423 124 -26
449 -37 569 -20 172 25 303 89 431 208 193 181 329 481 375 832 6 43 5 52 -6
48 -8 -2 -71 -22 -141 -43 l-126 -38 -12 -60 c-34 -175 -110 -343 -199 -438
-64 -70 -114 -98 -187 -105 -47 -5 -63 -2 -119 26 -85 42 -143 109 -205 236
-101 207 -146 484 -121 756 39 424 217 728 426 729 44 0 155 -38 155 -54 0 -3
-61 -215 -136 -471 -74 -257 -134 -470 -132 -475 9 -22 1433 414 1584 486 81
38 149 98 203 179 87 131 128 276 138 489 l6 138 -63 -46 c-79 -58 -276 -155
-490 -240 -231 -92 -712 -267 -718 -261 -3 2 4 28 14 57 l19 53 470 181 c259
99 495 193 525 209 87 44 169 106 247 188 57 60 83 98 122 179 67 141 86 222
86 383 0 72 -3 142 -8 157 l-7 27 -123 -78 c-150 -96 -322 -190 -507 -275
-168 -78 -590 -249 -597 -242 -9 8 22 89 38 98 8 4 102 47 209 94 264 115 670
317 805 400 229 141 337 303 376 564 12 86 7 306 -8 321 -5 4 -309 -136 -677
-312z"/>
<path d="M433 2899 c8 -192 39 -320 108 -450 39 -72 126 -165 191 -203 44 -26
464 -175 534 -190 l32 -7 7 63 c11 99 52 305 79 391 13 42 21 79 17 81 -3 2
-67 27 -141 54 -385 142 -676 274 -779 353 l-54 41 6 -133z"/>
</g>
</svg>
